<svg height="32" width="32" xmlns="http://www.w3.org/2000/svg"><g fill="#0997c5"><rect height="3" ry="1" width="8" x="12" y="27"/><path d="M4 28h24v1H4z"/><rect height="5" ry="2" width="5" x="24" y="20"/></g><rect fill="#0bbaf4" height="22" ry="2" width="10" x="4" y="3"/><rect fill="#0bbaf4" height="19" ry="2" width="25" x="4" y="5"/><rect fill="#e6e6e6" height="14" ry="2" width="10" x="4" y="11"/><path d="M8 11h18.5v14H8z" fill="#e6e6e6"/><path d="M4 24h22.5v1H4z" fill="#0997c5"/><rect fill="#e6e6e6" height="15" ry="2" width="14" x="15" y="9"/><path d="M4 19.5h13V24H4z" fill="#e6e6e6"/><g fill="#0bbaf4"><path d="M15 24h2v3h-2z"/><rect height="3" ry="1" width="8" x="12" y="26"/><path d="M4 27h24v1H4z"/></g><path d="M10 12h5v5h-5zm7 0h5v5h-5zm-7 7h5v5h-5zm7 0h5v5h-5z" fill="#3d3846"/></svg>