<svg height="128" width="128" xmlns="http://www.w3.org/2000/svg"><g fill="#0997c5" transform="scale(4)"><rect height="3" ry="1" width="8" x="12" y="27"/><path d="M4 28h24v1H4z"/><rect height="5" ry="2" width="5" x="24" y="20"/></g><g stroke-width="4"><rect fill="#0bbaf4" height="88" ry="8" width="40" x="16" y="12"/><rect fill="#0bbaf4" height="76" ry="8" width="100" x="16" y="20"/><rect fill="#e6e6e6" height="56" ry="8" width="40" x="16" y="44"/><path d="M32 44h74v56H32z" fill="#e6e6e6"/><path d="M16 96h90v4H16z" fill="#0997c5"/><g fill="#e6e6e6"><rect height="60" ry="8" width="56" x="60" y="36"/><path d="M16 78h52v18H16z"/></g></g><g fill="#0bbaf4" transform="scale(4)"><path d="M15 24h2v3h-2z"/><rect height="3" ry="1" width="8" x="12" y="26"/><path d="M4 27h24v1H4z"/></g><path d="M40 48h20v20H40zm28 0h20v20H68zM40 76h20v20H40zm28 0h20v20H68z" fill="#3d3846"/></svg>